# xmcd
#
# Track frame offsets: 
#        150
#        40241
#        80555
#        110706
#        139657
#        172359
#        209710
#        243536
#
# Disc length: 3757 seconds
#
# Revision: 2
# Processed by: cddbd v1.5.2PL0 Copyright (c) Steve Scherf et al.
# Submitted via: ExactAudioCopy v1.1
#
DISCID=7c0eab08
DTITLE=Eric Alexander Quartet - Sunday In New York
DYEAR=2005
DGENRE=Jazz
TTITLE0=Sunday In New York
TTITLE1=Avotcja
TTITLE2=Dearly Beloved
TTITLE3=Like Someone In Love
TTITLE4=Watch What Happens
TTITLE5=My Girl Is Just Enough Woman For Me
TTITLE6=Alone Together
TTITLE7=My Romance
EXTD=YEAR: 2005
EXTT0=
EXTT1=
EXTT2=
EXTT3=
EXTT4=
EXTT5=
EXTT6=
EXTT7=
PLAYORDER=
